<?xml version="1.0" encoding="UTF-8" standalone="no"?>
<!-- Created with Inkscape (http://www.inkscape.org/) -->

<svg
   width="10"
   height="10"
   viewBox="0 0 2.6458333 2.6458333"
   version="1.1"
   id="svg1"
   xml:space="preserve"
   docname="argFlag.svg"
   xmlns:inkscape="http://www.inkscape.org/namespaces/inkscape"
   xmlns:sodipodi="http://sodipodi.sourceforge.net/DTD/sodipodi-0.dtd"
   xmlns="http://www.w3.org/2000/svg"
   xmlns:svg="http://www.w3.org/2000/svg"><namedview
     id="namedview1"
     pagecolor="#ffffff"
     bordercolor="#000000"
     borderopacity="0.25"
     showpageshadow="2"
     pageopacity="0.0"
     pagecheckerboard="0"
     deskcolor="#d1d1d1"
     document-units="mm"
     zoom="45.254834"
     cx="-1.5909903"
     cy="3.170932"
     window-width="1920"
     window-height="1001"
     window-x="2391"
     window-y="464"
     window-maximized="1"
     current-layer="layer1" /><defs
     id="defs1" /><g
     label="Capa 1"
     groupmode="layer"
     id="layer1"><ellipse
       style="fill:#60adff;fill-opacity:1;stroke:none;stroke-width:0.0691997"
       id="path1"
       ry="1.3022413"
       rx="1.3094404"
       cy="1.3205826"
       cx="1.3219" /><path
       style="fill:#ffffff;fill-opacity:1;stroke:none;stroke-width:0.0692023"
       d="M 0.10293582,0.8671167 2.5431079,0.8643505 c 0.1323932,0.4066083 0.074086,0.6563373 0.010741,0.8712557 L 0.09689777,1.7345362 C -0.00316372,1.4835292 0.00246873,1.1788736 0.10293582,0.8671167 Z"
       id="path2"
       nodetypes="ccccc" /><path
       type="star"
       style="fill:#fcd449;fill-opacity:1;stroke:#000000;stroke-width:0;stroke-dasharray:none;stroke-opacity:1"
       id="path4"
       flatsided="false"
       sides="16"
       cx="1.0004557"
       cy="1.0686686"
       r1="0.24413162"
       r2="0.12206581"
       arg1="0.8033603"
       arg2="0.99970984"
       rounded="0"
       randomized="0"
       d="M 1.1699544,1.2443685 1.066438,1.1713643 1.0898147,1.2958585 1.0221154,1.1887974 0.99607085,1.3127608 0.9744954,1.1879419 0.90299457,1.2925024 0.93082759,1.1689282 0.82475587,1.2381673 0.89776004,1.1346508 0.77326589,1.1580276 0.88032697,1.0903283 0.75636349,1.0642837 0.88118242,1.0427083 0.77662193,0.97120744 0.90019615,0.99904046 0.83095704,0.89296874 0.9344735,0.96597291 0.91109679,0.84147875 0.97879604,0.94853984 1.0048406,0.82457636 1.0264161,0.94939529 1.0979169,0.8448348 1.0700839,0.96840902 1.1761556,0.89916991 1.1031514,1.0026864 1.2276456,0.97930966 1.1205845,1.0470089 1.244548,1.0730535 1.1197291,1.0946289 1.2242895,1.1661298 1.1007153,1.1382967 Z"
       transform="matrix(1.3004147,0,0,1.3150465,0.01998806,-0.0909777)" /><ellipse
       style="fill:#fcbf49;fill-opacity:0.982968;stroke:#000000;stroke-width:0;stroke-dasharray:none;stroke-opacity:1"
       id="path3"
       cx="1.3232669"
       cy="1.3192003"
       label="sol"
       rx="0.14222686"
       ry="0.14246802" /></g></svg>
