<?xml version="1.0" encoding="UTF-8" standalone="no"?>
<!-- Created with Inkscape (http://www.inkscape.org/) -->

<svg
   width="30"
   height="30"
   viewBox="0 0 7.9374998 7.9375002"
   version="1.1"
   id="svg1"
   xml:space="preserve"
   sodipodi:docname="usaFlag.svg"
   inkscape:version="1.3.2 (091e20e, 2023-11-25, custom)"
   inkscape:export-filename="usaFlag.png"
   inkscape:export-xdpi="96"
   inkscape:export-ydpi="96"
   xmlns:inkscape="http://www.inkscape.org/namespaces/inkscape"
   xmlns:sodipodi="http://sodipodi.sourceforge.net/DTD/sodipodi-0.dtd"
   xmlns="http://www.w3.org/2000/svg"
   xmlns:svg="http://www.w3.org/2000/svg"><sodipodi:namedview
     id="namedview1"
     pagecolor="#ffffff"
     bordercolor="#000000"
     borderopacity="0.25"
     inkscape:showpageshadow="2"
     inkscape:pageopacity="0.0"
     inkscape:pagecheckerboard="0"
     inkscape:deskcolor="#d1d1d1"
     inkscape:document-units="mm"
     inkscape:zoom="22.627417"
     inkscape:cx="11.092738"
     inkscape:cy="11.954524"
     inkscape:window-width="1920"
     inkscape:window-height="1001"
     inkscape:window-x="2391"
     inkscape:window-y="464"
     inkscape:window-maximized="1"
     inkscape:current-layer="layer3" /><defs
     id="defs1" /><g
     inkscape:groupmode="layer"
     id="layer3"
     inkscape:label="fondo"
     style="display:inline"><ellipse
       style="display:inline;fill:#e8262e;fill-opacity:1;stroke:#000000;stroke-width:0"
       id="path1"
       cx="4.0332751"
       cy="3.9802058"
       rx="3.3492694"
       ry="3.355166" /></g><g
     inkscape:groupmode="layer"
     id="layer2"
     inkscape:label="rayas"
     style="display:inline"><path
       style="fill:#ffffff;fill-opacity:1;stroke:#000000;stroke-width:0"
       d="M 0.70881951,4.2028826 7.3508753,4.1987126 C 7.3449567,4.382948 7.3256171,4.5685722 7.2726967,4.7501325 L 0.78387118,4.7407501 C 0.72638453,4.4916517 0.7110792,4.3332431 0.70881951,4.2028826 Z"
       id="path5"
       sodipodi:nodetypes="ccccc" /><path
       style="fill:#ffffff;fill-opacity:1;stroke:#000000;stroke-width:0"
       d="m 4.0273784,1.1262508 1e-7,0.4953145 2.3646851,0.0059 C 6.1907643,1.4298645 5.9902335,1.270754 5.7809019,1.1359592 Z m 1.1203543,0.3537961 z"
       id="path4"
       sodipodi:nodetypes="ccccc" /><path
       style="display:inline;fill:#ffffff;fill-opacity:1;stroke:#000000;stroke-width:0"
       d="m 4.0166864,3.1987995 2e-7,0.5069689 3.3236849,-0.023147 C 7.3236345,3.4961681 7.3035011,3.3472403 7.2617793,3.1795496 Z"
       id="path4-73"
       sodipodi:nodetypes="ccccc" /><path
       style="display:inline;fill:#ffffff;fill-opacity:1;stroke:#000000;stroke-width:0"
       d="m 4.026295,2.12082 10e-8,0.5612416 3.0780256,0.00669 C 6.9773693,2.4265172 6.9503133,2.3783164 6.7860349,2.1223897 Z"
       id="path4-7"
       sodipodi:nodetypes="ccccc" /><path
       style="fill:#ffffff;fill-opacity:1;stroke:#000000;stroke-width:0"
       d="m 0.93814346,5.2244167 6.19174674,0.00417 c -0.07882,0.1833799 -0.170982,0.3627572 -0.277362,0.5378691 L 1.2060975,5.7529131 C 1.0959753,5.5780479 1.004197,5.4020362 0.93814346,5.2244167 Z"
       id="path6"
       sodipodi:nodetypes="ccccc" /><path
       style="fill:#ffffff;fill-opacity:1;stroke:#000000;stroke-width:0"
       d="M 1.6282561,6.296703 6.431173,6.2879332 C 6.283835,6.4707015 6.0794377,6.6163813 5.8786767,6.7644247 H 2.2012151 C 1.9651528,6.6067144 1.797156,6.4517268 1.6282561,6.296703 Z"
       id="path7"
       sodipodi:nodetypes="ccccc" /></g><g
     inkscape:groupmode="layer"
     id="layer4"
     inkscape:label="estrellas"
     style="display:inline"><path
       style="display:inline;fill:#12568a;fill-opacity:1;stroke:#000000;stroke-width:0"
       d="M 4.0573622,0.62557773 4.0574844,3.9814808 H 0.69573597 C 0.64716792,2.0081512 2.3573058,0.59167996 4.0573622,0.62557773 Z"
       id="path8"
       sodipodi:nodetypes="cccc" /><path
       sodipodi:type="star"
       style="fill:#ffffff;fill-opacity:1;stroke:#000000;stroke-width:0"
       id="path9"
       inkscape:flatsided="false"
       sodipodi:sides="5"
       sodipodi:cx="1.7188771"
       sodipodi:cy="1.5434815"
       sodipodi:r1="0.25024202"
       sodipodi:r2="0.12512101"
       sodipodi:arg1="0.9179497"
       sodipodi:arg2="1.5462682"
       inkscape:rounded="0"
       inkscape:randomized="0"
       d="M 1.8708866,1.7422632 1.7219458,1.6685648 1.576798,1.7494781 1.600864,1.5850528 1.4790578,1.4720127 1.6428723,1.4440906 1.7127397,1.2933147 1.7899166,1.4404832 1.9549033,1.4603387 1.8387867,1.5792159 Z"
       inkscape:transform-center-x="-0.00053537542"
       inkscape:transform-center-y="-0.023386338"
       transform="rotate(1.8020177,19.405412,50.348952)" /><path
       sodipodi:type="star"
       style="display:inline;fill:#ffffff;fill-opacity:1;stroke:#000000;stroke-width:0"
       id="path9-0"
       inkscape:flatsided="false"
       sodipodi:sides="5"
       sodipodi:cx="1.7188771"
       sodipodi:cy="1.5434815"
       sodipodi:r1="0.25024202"
       sodipodi:r2="0.12512101"
       sodipodi:arg1="0.9179497"
       sodipodi:arg2="1.5462682"
       inkscape:rounded="0"
       inkscape:randomized="0"
       d="M 1.8708866,1.7422632 1.7219458,1.6685648 1.576798,1.7494781 1.600864,1.5850528 1.4790578,1.4720127 1.6428723,1.4440906 1.7127397,1.2933147 1.7899166,1.4404832 1.9549033,1.4603387 1.8387867,1.5792159 Z"
       inkscape:transform-center-x="-0.00053537542"
       inkscape:transform-center-y="-0.023386338"
       transform="rotate(1.8020177,-1.64614,64.918772)" /><path
       sodipodi:type="star"
       style="display:inline;fill:#ffffff;fill-opacity:1;stroke:#000000;stroke-width:0"
       id="path9-9"
       inkscape:flatsided="false"
       sodipodi:sides="5"
       sodipodi:cx="1.7188771"
       sodipodi:cy="1.5434815"
       sodipodi:r1="0.25024202"
       sodipodi:r2="0.12512101"
       sodipodi:arg1="0.9179497"
       sodipodi:arg2="1.5462682"
       inkscape:rounded="0"
       inkscape:randomized="0"
       d="M 1.8708866,1.7422632 1.7219458,1.6685648 1.576798,1.7494781 1.600864,1.5850528 1.4790578,1.4720127 1.6428723,1.4440906 1.7127397,1.2933147 1.7899166,1.4404832 1.9549033,1.4603387 1.8387867,1.5792159 Z"
       inkscape:transform-center-x="-0.00053537542"
       inkscape:transform-center-y="-0.023386338"
       transform="rotate(1.8020177,-1.5730865,36.126287)" /><path
       sodipodi:type="star"
       style="display:inline;fill:#ffffff;fill-opacity:1;stroke:#000000;stroke-width:0"
       id="path9-5"
       inkscape:flatsided="false"
       sodipodi:sides="5"
       sodipodi:cx="1.7188771"
       sodipodi:cy="1.5434815"
       sodipodi:r1="0.25024202"
       sodipodi:r2="0.12512101"
       sodipodi:arg1="0.9179497"
       sodipodi:arg2="1.5462682"
       inkscape:rounded="0"
       inkscape:randomized="0"
       d="M 1.8708866,1.7422632 1.7219458,1.6685648 1.576798,1.7494781 1.600864,1.5850528 1.4790578,1.4720127 1.6428723,1.4440906 1.7127397,1.2933147 1.7899166,1.4404832 1.9549033,1.4603387 1.8387867,1.5792159 Z"
       inkscape:transform-center-x="-0.00053537542"
       inkscape:transform-center-y="-0.023386338"
       transform="rotate(1.8020177,-2.4014728,8.5311854)" /><path
       sodipodi:type="star"
       style="display:inline;fill:#ffffff;fill-opacity:1;stroke:#000000;stroke-width:0"
       id="path9-1"
       inkscape:flatsided="false"
       sodipodi:sides="5"
       sodipodi:cx="1.7188771"
       sodipodi:cy="1.5434815"
       sodipodi:r1="0.25024202"
       sodipodi:r2="0.12512101"
       sodipodi:arg1="0.9179497"
       sodipodi:arg2="1.5462682"
       inkscape:rounded="0"
       inkscape:randomized="0"
       d="M 1.8708866,1.7422632 1.7219458,1.6685648 1.576798,1.7494781 1.600864,1.5850528 1.4790578,1.4720127 1.6428723,1.4440906 1.7127397,1.2933147 1.7899166,1.4404832 1.9549033,1.4603387 1.8387867,1.5792159 Z"
       inkscape:transform-center-x="-0.00053537542"
       inkscape:transform-center-y="-0.023386338"
       transform="rotate(1.8020177,-23.658414,-5.59591)" /><path
       sodipodi:type="star"
       style="display:inline;fill:#ffffff;fill-opacity:1;stroke:#000000;stroke-width:0"
       id="path9-3"
       inkscape:flatsided="false"
       sodipodi:sides="5"
       sodipodi:cx="1.7188771"
       sodipodi:cy="1.5434815"
       sodipodi:r1="0.25024202"
       sodipodi:r2="0.12512101"
       sodipodi:arg1="0.9179497"
       sodipodi:arg2="1.5462682"
       inkscape:rounded="0"
       inkscape:randomized="0"
       d="M 1.8708866,1.7422632 1.7219458,1.6685648 1.576798,1.7494781 1.600864,1.5850528 1.4790578,1.4720127 1.6428723,1.4440906 1.7127397,1.2933147 1.7899166,1.4404832 1.9549033,1.4603387 1.8387867,1.5792159 Z"
       inkscape:transform-center-x="-0.00053537542"
       inkscape:transform-center-y="-0.023386338"
       transform="rotate(1.8020177,-22.951127,22.658432)" /><path
       sodipodi:type="star"
       style="display:inline;fill:#ffffff;fill-opacity:1;stroke:#000000;stroke-width:0"
       id="path9-6"
       inkscape:flatsided="false"
       sodipodi:sides="5"
       sodipodi:cx="1.7188771"
       sodipodi:cy="1.5434815"
       sodipodi:r1="0.25024202"
       sodipodi:r2="0.12512101"
       sodipodi:arg1="0.9179497"
       sodipodi:arg2="1.5462682"
       inkscape:rounded="0"
       inkscape:randomized="0"
       d="M 1.8708866,1.7422632 1.7219458,1.6685648 1.576798,1.7494781 1.600864,1.5850528 1.4790578,1.4720127 1.6428723,1.4440906 1.7127397,1.2933147 1.7899166,1.4404832 1.9549033,1.4603387 1.8387867,1.5792159 Z"
       inkscape:transform-center-x="-0.00053537542"
       inkscape:transform-center-y="-0.023386338"
       transform="rotate(1.8020177,-22.377342,50.783407)" /><path
       sodipodi:type="star"
       style="display:inline;fill:#ffffff;fill-opacity:1;stroke:#000000;stroke-width:0"
       id="path9-51"
       inkscape:flatsided="false"
       sodipodi:sides="5"
       sodipodi:cx="1.7188771"
       sodipodi:cy="1.5434815"
       sodipodi:r1="0.25024202"
       sodipodi:r2="0.12512101"
       sodipodi:arg1="0.9179497"
       sodipodi:arg2="1.5462682"
       inkscape:rounded="0"
       inkscape:randomized="0"
       d="M 1.8708866,1.7422632 1.7219458,1.6685648 1.576798,1.7494781 1.600864,1.5850528 1.4790578,1.4720127 1.6428723,1.4440906 1.7127397,1.2933147 1.7899166,1.4404832 1.9549033,1.4603387 1.8387867,1.5792159 Z"
       inkscape:transform-center-x="-0.00053537542"
       inkscape:transform-center-y="-0.023386338"
       transform="rotate(1.8020177,-43.836704,65.582297)" /><path
       sodipodi:type="star"
       style="display:inline;fill:#ffffff;fill-opacity:1;stroke:#000000;stroke-width:0"
       id="path9-19"
       inkscape:flatsided="false"
       sodipodi:sides="5"
       sodipodi:cx="1.7188771"
       sodipodi:cy="1.5434815"
       sodipodi:r1="0.25024202"
       sodipodi:r2="0.12512101"
       sodipodi:arg1="0.9179497"
       sodipodi:arg2="1.5462682"
       inkscape:rounded="0"
       inkscape:randomized="0"
       d="M 1.8708866,1.7422632 1.7219458,1.6685648 1.576798,1.7494781 1.600864,1.5850528 1.4790578,1.4720127 1.6428723,1.4440906 1.7127397,1.2933147 1.7899166,1.4404832 1.9549033,1.4603387 1.8387867,1.5792159 Z"
       inkscape:transform-center-x="-0.00053537542"
       inkscape:transform-center-y="-0.023386338"
       transform="rotate(1.8020177,-44.418757,36.931583)" /><path
       sodipodi:type="star"
       style="display:inline;fill:#ffffff;fill-opacity:1;stroke:#000000;stroke-width:0"
       id="path9-4"
       inkscape:flatsided="false"
       sodipodi:sides="5"
       sodipodi:cx="1.7188771"
       sodipodi:cy="1.5434815"
       sodipodi:r1="0.25024202"
       sodipodi:r2="0.12512101"
       sodipodi:arg1="0.9179497"
       sodipodi:arg2="1.5462682"
       inkscape:rounded="0"
       inkscape:randomized="0"
       d="M 1.8708866,1.7422632 1.7219458,1.6685648 1.576798,1.7494781 1.600864,1.5850528 1.4790578,1.4720127 1.6428723,1.4440906 1.7127397,1.2933147 1.7899166,1.4404832 1.9549033,1.4603387 1.8387867,1.5792159 Z"
       inkscape:transform-center-x="-0.00053537542"
       inkscape:transform-center-y="-0.023386338"
       transform="rotate(1.8020177,-44.594104,9.0632754)" /><path
       sodipodi:type="star"
       style="display:inline;fill:#ffffff;fill-opacity:1;stroke:#000000;stroke-width:0"
       id="path9-05"
       inkscape:flatsided="false"
       sodipodi:sides="5"
       sodipodi:cx="1.7188771"
       sodipodi:cy="1.5434815"
       sodipodi:r1="0.25024202"
       sodipodi:r2="0.12512101"
       sodipodi:arg1="0.9179497"
       sodipodi:arg2="1.5462682"
       inkscape:rounded="0"
       inkscape:randomized="0"
       d="M 1.8708866,1.7422632 1.7219458,1.6685648 1.576798,1.7494781 1.600864,1.5850528 1.4790578,1.4720127 1.6428723,1.4440906 1.7127397,1.2933147 1.7899166,1.4404832 1.9549033,1.4603387 1.8387867,1.5792159 Z"
       inkscape:transform-center-x="-0.00053537542"
       inkscape:transform-center-y="-0.023386338"
       transform="rotate(1.8020177,-45.424555,-18.66326)" /><path
       sodipodi:type="star"
       style="display:inline;fill:#ffffff;fill-opacity:1;stroke:#000000;stroke-width:0"
       id="path9-40"
       inkscape:flatsided="false"
       sodipodi:sides="5"
       sodipodi:cx="1.7188771"
       sodipodi:cy="1.5434815"
       sodipodi:r1="0.25024202"
       sodipodi:r2="0.12512101"
       sodipodi:arg1="0.9179497"
       sodipodi:arg2="1.5462682"
       inkscape:rounded="0"
       inkscape:randomized="0"
       d="M 1.8708866,1.7422632 1.7219458,1.6685648 1.576798,1.7494781 1.600864,1.5850528 1.4790578,1.4720127 1.6428723,1.4440906 1.7127397,1.2933147 1.7899166,1.4404832 1.9549033,1.4603387 1.8387867,1.5792159 Z"
       inkscape:transform-center-x="-0.00053537542"
       inkscape:transform-center-y="-0.023386338"
       transform="rotate(1.8020177,-66.374716,-4.9241158)" /><path
       sodipodi:type="star"
       style="display:inline;fill:#ffffff;fill-opacity:1;stroke:#000000;stroke-width:0"
       id="path9-8"
       inkscape:flatsided="false"
       sodipodi:sides="5"
       sodipodi:cx="1.7188771"
       sodipodi:cy="1.5434815"
       sodipodi:r1="0.25024202"
       sodipodi:r2="0.12512101"
       sodipodi:arg1="0.9179497"
       sodipodi:arg2="1.5462682"
       inkscape:rounded="0"
       inkscape:randomized="0"
       d="M 1.8708866,1.7422632 1.7219458,1.6685648 1.576798,1.7494781 1.600864,1.5850528 1.4790578,1.4720127 1.6428723,1.4440906 1.7127397,1.2933147 1.7899166,1.4404832 1.9549033,1.4603387 1.8387867,1.5792159 Z"
       inkscape:transform-center-x="-0.00053537542"
       inkscape:transform-center-y="-0.023386338"
       transform="rotate(1.8020177,-65.932363,23.202926)" /><path
       sodipodi:type="star"
       style="display:inline;fill:#ffffff;fill-opacity:1;stroke:#000000;stroke-width:0"
       id="path9-47"
       inkscape:flatsided="false"
       sodipodi:sides="5"
       sodipodi:cx="1.7188771"
       sodipodi:cy="1.5434815"
       sodipodi:r1="0.25024202"
       sodipodi:r2="0.12512101"
       sodipodi:arg1="0.9179497"
       sodipodi:arg2="1.5462682"
       inkscape:rounded="0"
       inkscape:randomized="0"
       d="M 1.8708866,1.7422632 1.7219458,1.6685648 1.576798,1.7494781 1.600864,1.5850528 1.4790578,1.4720127 1.6428723,1.4440906 1.7127397,1.2933147 1.7899166,1.4404832 1.9549033,1.4603387 1.8387867,1.5792159 Z"
       inkscape:transform-center-x="-0.00053537542"
       inkscape:transform-center-y="-0.023386338"
       transform="rotate(1.8020177,-65.091575,51.586635)" /></g></svg>
